<?xml version="1.0" encoding="UTF-8"?>
<svg id="Layer_2" data-name="Layer 2" xmlns="http://www.w3.org/2000/svg" xmlns:xlink="http://www.w3.org/1999/xlink" viewBox="0 0 908.4 908.4">
  <defs>
    <style>
      .cls-1 {
        fill: url(#linear-gradient);
      }
    </style>
    <linearGradient id="linear-gradient" x1="0" y1="454.2" x2="908.4" y2="454.2" gradientUnits="userSpaceOnUse">
      <stop offset="0" stop-color="#f5154e"/>
      <stop offset="1" stop-color="#4e0dbd"/>
    </linearGradient>
  </defs>
  <g id="Layer_1-2" data-name="Layer 1">
    <path class="cls-1" d="M454.2,0C203.35,0,0,203.35,0,454.2s203.35,454.2,454.2,454.2,454.2-203.35,454.2-454.2S705.05,0,454.2,0Zm269.7,786.28h0c-27.45,27.45-71.95,27.45-99.4,0L318.87,480.66l.05-.05-14.41-14.41v276.7c0,38.83-31.48,70.3-70.3,70.3h0c-38.83,0-70.3-31.48-70.3-70.3V165.5c0-38.83,31.48-70.3,70.3-70.3h0c38.83,0,70.3,31.48,70.3,70.3V442.19L624.76,121.94c27.35-27.35,71.7-27.35,99.05,0h0c27.35,27.35,27.35,71.7,0,99.05l-232.9,232.9,232.99,232.99c27.45,27.45,27.45,71.95,0,99.4Z"/>
  </g>
</svg>