<?xml version="1.0" encoding="UTF-8"?>
<svg id="Layer_2" data-name="Layer 2" xmlns="http://www.w3.org/2000/svg" xmlns:xlink="http://www.w3.org/1999/xlink" viewBox="0 0 967 967">
  <defs>
    <style>
      .cls-1 {
        fill: url(#linear-gradient);
      }
    </style>
    <linearGradient id="linear-gradient" x1="0" y1="483.5" x2="967" y2="483.5" gradientUnits="userSpaceOnUse">
      <stop offset="0" stop-color="#f5154e"/>
      <stop offset="1" stop-color="#4e0dbd"/>
    </linearGradient>
  </defs>
  <g id="Layer_1-2" data-name="Layer 1">
    <path class="cls-1" d="M916,0H51C22.83,0,0,22.83,0,51V916c0,28.17,22.83,51,51,51H916c28.17,0,51-22.83,51-51V51c0-28.17-22.83-51-51-51Zm-110.38,915.38h0c-27.45,27.45-71.95,27.45-99.4,0L280.99,490.16v375.54c0,38.83-31.48,70.3-70.3,70.3h0c-38.83,0-70.3-31.48-70.3-70.3V102.3c0-38.83,31.48-70.3,70.3-70.3h0c38.83,0,70.3,31.48,70.3,70.3V466.01l87.33-87.33,.02,.02L695,52.04c27.35-27.35,71.7-27.35,99.05,0h0c27.35,27.35,27.35,71.7,0,99.05L467.39,477.74l338.23,338.23c27.45,27.45,27.45,71.95,0,99.4Z"/>
  </g>
</svg>